<?xml version="1.0" ?><svg id="Layer_1" style="enable-background:new 0 0 96 96;" version="1.1" viewBox="0 0 96 96" xml:space="preserve" xmlns="http://www.w3.org/2000/svg" xmlns:xlink="http://www.w3.org/1999/xlink"><g><path d="M58,26.6v6.9c0,2.2,1.8,4,4,4h6.9c1.8,0,3.3-1.2,3.8-2.8c-1.3-0.6-2.6-1.2-3.8-2.1v0.9H62v-6.9h1.3   c-0.7-1.2-1.4-2.5-1.8-3.9C59.5,23,58,24.7,58,26.6z"/><path d="M17.2,46.2c-0.4-0.5-1-0.9-1.7-0.9c-1.1,0-2,0.9-2,2v32.4c0,1.1,0.9,2,2,2h51.8c1.1,0,2-0.9,2-2V47.3c0-1.1-0.9-2-2-2   c-1.1,0-2,0.9-2,1.9v0v30.4H17.5V47.3C17.5,46.9,17.4,46.5,17.2,46.2z"/><path d="M87.9,11.9c-0.6-0.9-1.8-1.3-2.7-0.7l-3,1.8V9.4c0-1.1-0.9-2-2-2s-2,0.9-2,2v3.5l-3-1.8c-0.9-0.5-2.2-0.2-2.7,0.7   c-0.5,0.9-0.2,2.2,0.7,2.7l3,1.7l-3,1.8c-0.9,0.5-1.3,1.8-0.7,2.7c0.6,0.9,1.8,1.3,2.7,0.7l3-1.8v3.5c0,1.1,0.9,2,2,2s2-0.9,2-2   v-3.5l3,1.8c0.9,0.5,2.2,0.2,2.7-0.7c0.5-0.9,0.2-2.2-0.7-2.7l-3-1.7l3-1.8C88.1,14,88.4,12.8,87.9,11.9z"/><path d="M80.2,0.5c-8.7,0-15.8,7.1-15.8,15.8c0,8.8,7.1,15.8,15.8,15.8S96,25.1,96,16.3C96,7.6,88.9,0.5,80.2,0.5z M80.2,28.2   c-6.6,0-11.9-5.3-11.9-11.9c0-6.6,5.3-11.9,11.9-11.9C86.7,4.4,92,9.8,92,16.3C92,22.9,86.7,28.2,80.2,28.2z"/><path d="M58.6,51.6c0-9.5-7.7-17.2-17.2-17.2s-17.2,7.7-17.2,17.2c0,9.5,7.7,17.2,17.2,17.2S58.6,61.1,58.6,51.6z M28.1,51.6   c0-7.3,5.9-13.3,13.3-13.3s13.3,5.9,13.3,13.3c0,7.3-5.9,13.3-13.3,13.3S28.1,58.9,28.1,51.6z"/><path d="M78.7,36.1v45c0,5.8-4.7,10.5-10.5,10.5H14.5C8.7,91.6,4,86.8,4,81V27.4c0-5.5,4.2-10,9.6-10.5v13.3c0,1.1,0.9,2,2,2   s2-0.9,2-2V16.8h5.3v13.4c0,1.1,0.9,2,2,2s2-0.9,2-2V16.8h33.6l0-0.5c0-1.2,0.1-2.3,0.3-3.5H14.5C6.5,12.9,0,19.4,0,27.4V81   c0,8,6.5,14.5,14.5,14.5h53.7c8,0,14.5-6.5,14.5-14.5V36c-0.8,0.1-1.7,0.2-2.5,0.2C79.7,36.1,79.2,36.1,78.7,36.1z"/></g></svg>